<?xml version="1.0" encoding="utf-8"?>
<!-- Generator: Adobe Illustrator 24.0.0, SVG Export Plug-In . SVG Version: 6.00 Build 0)  -->
<svg version="1.1" id="Layer_1" xmlns="http://www.w3.org/2000/svg" xmlns:xlink="http://www.w3.org/1999/xlink" x="0px" y="0px"
	 viewBox="0 0 612 792" style="enable-background:new 0 0 612 792;" xml:space="preserve">
<style type="text/css">
	.st0{stroke:#000000;stroke-width:0.25;stroke-miterlimit:10;}
</style>
<g>
	<path class="st0" d="M516.93,454.76c-0.9-0.6-1.9-1.09-2.7-1.82c-13.65-12.49-26.82-25.55-43.23-34.62
		c-2.5-1.38-4.5-3.67-6.73-5.54c-1.9-1.6-17.02-3.54-18.89-1.95c-3.91,3.31-8.07,6.6-11.02,10.7c-2.38,3.3-4.55,6.17-8.7,6.29
		c-8.85,0.27-15.34,5.75-22.38,9.89c-14.93,8.78-31.18,13.59-47.98,16.99c-13.8,2.79-27.58,5.71-41.37,8.58
		c-0.51,0.11-1.15,0.2-1.45,0.54c-5.4,6.1-12.37,3.29-18.83,3.39c-0.7,0.01-1.55,0.24-2.06-0.07c-8.78-5.37-18.52-0.85-27.78-2.79
		c-17.32-3.63-35.07-5.26-52.39-8.93c-9.66-2.04-18.73-6.76-28.23-9.74c-3.44-1.08-7.47-1.28-11.05-0.72
		c-4.61,0.73-7.17-0.29-9.68-4.49c-2.48-4.13-6.06-8.12-10.12-10.58c-2.42-1.47-7.62-1.13-10,0.57
		c-16,11.44-31.46,23.63-47.38,35.19c-3.56,2.58-8.25,3.6-12.42,5.34c-0.3-0.45-0.6-0.9-0.9-1.36c1.32-1.15,2.59-2.38,3.98-3.44
		c3.53-2.68,7.35-5.02,10.65-7.95c9.77-8.69,19.19-17.77,29.06-26.34c5.35-4.65,11.34-8.56,16.23-12.2
		c-2.39-3.03-4.8-5.63-6.69-8.56c-3.13-4.87-6.04-9.9-8.84-14.97c-1.92-3.48-3.53-7.14-5.17-10.77c-0.32-0.71-0.51-1.92-0.13-2.42
		c3.18-4.24,1.33-7.62-1.35-11.21c-0.91-1.22-0.98-3.24-1.03-4.91c-0.64-21.75,5.41-42.01,14.19-61.56
		c3.14-6.99,7.28-13.53,11.02-20.25c0.49-0.89,1.25-1.69,2.05-2.34c10.87-8.9,21.76-17.78,32.66-26.64
		c5.73-4.66,11.62-9.15,17.21-13.97c2.95-2.55,2.72-12.91-0.4-14.99c-1.42-0.95-3.97-0.85-5.8-0.39c-1.94,0.49-3.52,2.46-5.45,2.89
		c-2.38,0.53-4.97,0.13-7.47,0.13c-0.26-0.83-0.53-1.67-0.79-2.5c7.45-5.15,14.37-11.43,22.45-15.24
		c19.63-9.26,39.69-17.67,59.82-25.81c10.36-4.19,21.43-5.94,32.71-6.11c9.17-0.13,18.34-0.83,27.51-0.97
		c16.14-0.23,31.45,4.17,46.74,9.1c-3.51,0-7.02,0-10.54,0c-0.01,0.32-0.02,0.63-0.03,0.95c3.4,0,6.81,0.1,10.2-0.02
		c13.96-0.49,24.83,6.34,34.91,14.85c2.11,1.78,3.63,4.27,5.41,6.45c2.42,2.97,0.94,5.15-1.65,6.76
		c-9.81,6.07-19.67,12.07-29.57,18.01c-3.25,1.95-6.57,3.83-10.01,5.43c-4.57,2.12-9.28,3.92-14,5.89c0.28,0.4,0.94,1.36,1.76,2.53
		c-1.51,1.25-3.02,2.49-5.68,4.69c2.48,0.11,4,0.63,5.08,0.16c10.52-4.65,21.47-3.31,32.1-1.54c11.41,1.9,22.83,4.52,33.77,8.22
		c15.54,5.25,29.57,13.58,42.01,24.44c18.02,15.74,24.04,35.7,19.44,58.59c-1.93,9.57-6.5,18.62-9.89,27.89
		c-2.1,5.74-4.94,11.33-6.07,17.25c-0.5,2.63,1.68,6.66,3.88,8.76c8.86,8.45,18.2,16.4,27.39,24.51c1.93,1.71,4.22,3.08,5.88,5.01
		c3.79,4.41,7.4,9,10.88,13.66c2.41,3.22,4.51,6.67,6.68,10.07c0.58,0.91,0.9,1.99,1.33,2.99
		C517.7,454.09,517.32,454.43,516.93,454.76z M284.72,369.13c7.11-3.15,10.34-9.49,9.87-17.07c-0.73-11.87-2.36-23.68-3.71-35.51
		c-0.63-5.57-1.48-11.11-2.24-16.66c-0.8-5.86-1.34-11.77-2.61-17.53c-0.3-1.35-3.41-3.34-4.65-2.98c-4.2,1.19-8.55,2.7-12.09,5.17
		c-8.78,6.11-18.52,10.74-16.03,25.47c2.43,14.4,1.25,29.43,1.46,44.19c0.12,8.1-0.27,16.16-7.93,21.32
		c1.73,3.31,3.24,6.32,4.86,9.26c2.95,5.36,1.37,9.74-4.7,11.13c-16.29,3.72-29.41,13.02-42.36,22.88
		c-5.97,4.54-12.5,8.35-19.41,12.91c1.89,1.87,3.76,4.67,6.38,6.1c4.32,2.35,9.12,3.82,13.71,5.66
		c13.55,5.42,27.18,10.52,41.98,11.26c0.17,0.01,0.35,0.01,0.52,0.01c12.13,0.35,24.26,0.56,36.38,1.14
		c4.41,0.21,6.53-1.89,7.2-5.68c1.65-9.44,3.77-18.88,4.38-28.41c0.75-11.75,0.31-23.6,0.05-35.39c-0.05-2.53-1.01-5.38-2.44-7.45
		C291,375.55,287.92,372.68,284.72,369.13z M187.23,332.25c-0.02-0.72-0.03-1.44-0.05-2.16c3.01-3.75,5.95-7.55,9.04-11.24
		c4.95-5.92,8.25-12.24,6.73-20.38c-0.72-3.85-0.68-7.86-0.85-11.8c-0.53-11.85-0.99-23.7-1.48-35.69
		c-5.58-1.14-9.97,1.17-13.74,4.11c-8.28,6.46-17.01,12.63-24.05,20.3c-6.53,7.1-11.96,15.57-16.27,24.23
		c-3.39,6.82-4.63,14.79-6.29,22.36c-2.9,13.24-2.3,26.68-1.24,40.08c0.23,2.84,0.72,5.8,1.8,8.4c3.23,7.81,4.06,16.63,9.83,23.36
		c0.22,0.26,0.43,0.58,0.5,0.9c1.12,5.19,4.87,7.9,9.58,8.81c5.11,0.98,6.78,5.44,9.86,8.45c0.44,0.43,0.1,2.28-0.47,3.03
		c-2.56,3.35-0.97,6.47,1.2,8.59c1.97,1.93,4.78,3.89,8.21,1.61c4.71-3.14,9.65-5.93,14.4-9.01c0.82-0.53,1.43-1.74,1.66-2.74
		c2.76-11.84,5.95-23.62,5.3-35.99c-0.13-2.56,0.44-5.16,0.51-7.74c0.28-10.63,0.39-21.27,0.75-31.89c0.21-6.17-3.71-5.17-7.61-4.93
		C192.12,333.04,189.67,332.49,187.23,332.25z M409.86,415.49c-1.22-2.37-2.52-6.82-5.3-9.95c-7.82-8.84-15.81-17.63-24.58-25.5
		c-8.83-7.93-18.45-15.05-28.15-21.92c-12.93-9.16-23.44-4.42-32.74,5.03c-1.13,1.14-1.57,3.26-1.75,4.99
		c-0.99,9.67-1.79,19.35-2.66,29.03c-0.47,5.25-2.32,10.85-1.08,15.65c1.61,6.25,0.78,12.22,0.53,18.23
		c-0.19,4.57-1.99,9.08-3.24,14.32c0.14,0.32,1.03,1.59,1.28,2.98c0.65,3.58,3.07,4.66,6.03,3.91c14.19-3.6,28.47-6.95,42.41-11.36
		c9.56-3.02,18.86-7.16,27.81-11.7C395.55,425.57,401.97,420.61,409.86,415.49z M250.52,274.12c0.58,1.12,2.18,3.19,2.75,5.51
		c0.94,3.78,2.48,4.3,5.76,2.46c8.09-4.53,16.39-8.69,24.41-13.33c3-1.74,5.39-4.5,8.19-6.63c1.82-1.39,3.75-2.77,5.85-3.62
		c2.76-1.13,5.91-1.38,8.58-2.67c4.14-2.01,8.17-4.36,11.98-6.96c9.76-6.66,19.35-13.57,29.1-20.26c1.12-0.77,2.77-0.8,4.19-1.07
		c2.61-0.5,4.22-1.19,3.92-4.69c-0.75-8.74-7.15-12.76-13.31-17c-10.13-6.97-21.65-10.68-33.54-13.09
		c-9.81-1.99-19.79-3.73-29.77-1.12c-5.82,1.52-11.36,2.79-17.63,2.45c-3.87-0.21-8.01,3.9-11.91,6.27
		c-0.39,0.24,0.11,1.82,0.05,2.77c-0.29,4.75,3.81,9.66-0.33,13.54c1.16,1.93,1.85,3.49,2.92,4.72c0.88,1.01,2.32,2.43,3.31,2.28
		c4.14-0.6,8.16-2.02,12.3-2.58c9.03-1.2,17.77-0.31,27.09,5.11c-3.91,0-6.41,0.04-8.91-0.01c-10.35-0.19-20.79-1.44-30.72,2.96
		c-2.84,1.26-4.39,3.01-4.24,6.31c0.48,10.54,0.87,21.08,1.12,31.63C251.73,269.21,251.01,271.31,250.52,274.12z M418.48,290.58
		c-1.76-2.58-3.05-6.19-5.61-7.96c-19.45-13.41-41.59-19-64.75-21.05c-11.84-1.05-23.36,0.46-34.57,5
		c-5.96,2.42-7.43,3.83-6.33,10.15c1.15,6.59,2.08,13.22,2.9,19.86c1.47,11.95,2.91,23.91,4.01,35.9c0.18,2.01-1.44,4.18-1.97,5.58
		c1.64,2.96,3.28,5.93,5.16,9.34C349.5,326.24,381.76,305.23,418.48,290.58z M353.45,338.61c2.6,1.09,4.89,1.56,6.53,2.85
		c2.04,1.61,3.25,4.28,5.32,5.82c5.32,3.95,11.45,6.95,16.29,11.38c9.67,8.86,18.7,18.42,27.94,27.74c1.17,1.18,1.97,2.73,3.01,4.06
		c2.29,2.94,4.26,6.26,7.03,8.66c3.98,3.44,6.63,2.78,8.43-2.09c0.72-1.96-0.52-4.65-1.06-8.29c0.62-1.18,1.63-3.96,3.36-6.19
		c1.57-2.02,3.91-3.43,5.74-4.97c-0.21-0.09-0.94-0.4-1.67-0.72c0.86-1.6,2.2-3.02,2.38-4.58c1.07-9.49,5.1-18.3,4.7-28.27
		c-0.58-14.21-2.66-27.57-11.9-38.88c-2.59-3.17-6.26-6.3-10.2-2.86c-5.11,4.47-10.71,6.66-17.3,6.84
		c-3.96,0.11-5.51,3.18-7.97,5.59c-3.1,3.04-7.68,4.53-11.5,6.88C373.03,327.43,365.24,336.17,353.45,338.61z M316.35,254.74
		c6.54-3.13,13.08-6.26,19.58-9.37C327.96,245.62,321.93,249.99,316.35,254.74z"/>
	<path class="st0" d="M267.94,519c-12.84-0.08-23.65-9.88-23-22.53c0.67-12.98,7.26-22.42,23.48-22.52
		c14.19-0.09,21.79,6.68,22.78,21.13C292.07,507.62,280.42,519.08,267.94,519z M272.03,517.31c1.62-0.99,5.99-2.23,7.87-5.1
		c5.6-8.57,5.77-18.02,1.35-27.3c-2.93-6.15-10.46-10.43-16.23-9.66c-6.92,0.92-11.04,5.34-12.26,14.14
		c-0.57,4.12-0.49,8.45,0.06,12.59C253.88,509.95,262.55,517.5,272.03,517.31z"/>
	<path class="st0" d="M187.38,475.58c4.98,0,11.74-0.47,18.39,0.12c7.83,0.7,11.39,8.63,7.33,15.54c-1.38,2.35-3.29,4.39-5.42,7.19
		c5.03,7.46,10.43,14.93,18.56,19.28c-8.91,0.93-11.39-0.45-18.19-10.41c-2.93-4.29-5.61-9.11-12.24-6.53
		c-1.97,10.77-0.75,15.76,3.15,16.73c-3.31,0-7.65,0-11.33,0c0.44-1.31,1.57-3.18,1.61-5.07c0.17-10.77,0.21-21.55-0.03-32.32
		C189.17,478.18,187.68,476.27,187.38,475.58z M195.23,486.96c0,1.9-0.37,3.91,0.1,5.69c0.54,2.02,1.89,5.48,2.78,5.45
		c2.98-0.1,6.8-0.63,8.68-2.57c3.57-3.69,3.51-11.59-0.08-15.25c-2.12-2.16-5.92-2.68-8.97-3.94c-0.84,2.33-1.8,4.62-2.46,7
		C194.97,484.46,195.23,485.74,195.23,486.96z"/>
	<path class="st0" d="M68.07,475.07c2.95,0,7.46,0,11.51,0c-3.77,2.3-5.1,11.12-2.04,19.89c4.54-7.45,13.01-11.05,15.45-20.26
		c1.28,0.26,3.51,0.72,6.39,1.31c-5.93,5.61-11.59,10.96-18.24,17.25c8.91,8.82,17.36,17.18,25.11,24.86
		c-9.3,2.03-14.51-6.01-20.51-12.52c-2.85-3.1-5.51-6.37-8.47-9.82c-3.2,10.1-1.39,20,2.94,21.74c-3.59,0-7.96,0-11.67,0
		c0.44-1.31,1.58-3.18,1.61-5.07c0.17-10.77,0.21-21.55-0.03-32.31C70.07,478.19,68.58,476.27,68.07,475.07z"/>
	<path class="st0" d="M513.87,495.6c-2.95,11.43-1.4,19.97,3.52,22.57c-2.13-0.39-4.25-1.05-6.38-1.09
		c-2.17-0.04-4.36,0.54-6.22,0.8c0.67-1.4,2.01-2.93,2.03-4.49c0.18-11.29,0.21-22.6-0.02-33.89c-0.04-1.74-1.68-3.45-2.2-4.43
		c3.05,0,7.39,0,10.91,0c-5.22,5.31-1.75,12.37-2.66,19.23c6.72-3.11,16.72-15.81,15.71-19.85c2.39,0.49,4.63,0.95,7.55,1.55
		c-5.97,5.64-11.63,11-17.73,16.76c7.88,9.6,15.68,18.42,25.24,24.82c-10.15,1.89-12.26-2.41-20.96-11.82
		C519.73,502.59,516.99,499.22,513.87,495.6z"/>
	<path class="st0" d="M388.76,519.25c1-2.91,2.09-4.64,2.11-6.39c0.16-10.95,0.2-21.9-0.04-32.85c-0.04-1.9-1.61-3.76-1.94-4.5
		c4.17,0,9.84,0.13,15.51-0.04c4.08-0.12,6.92,2.01,7.9,5.39c1,3.43,0.73,7.28-2.96,9.74c-0.82,0.55-1.36,1.5-1.64,1.82
		c3.16,3.55,6.81,6.48,8.87,10.28c2.46,4.52,0.16,10.86-4.74,12.28C404.37,517.14,396.5,517.9,388.76,519.25z M396.86,495.37
		c0,4.79,0.09,9.27-0.03,13.73c-0.1,3.66,0.8,6.62,4.89,7.12c4,0.48,7.47-0.45,9.11-4.81C413.91,503.23,406.9,494.65,396.86,495.37z
		 M397.14,494.35c3.64-1.32,8.33-1.67,9.13-3.62c1.3-3.17,0.88-7.68-0.36-11.06c-1.26-3.43-4.93-4.41-8.77-2.79
		C397.14,482.25,397.14,487.54,397.14,494.35z"/>
	<path class="st0" d="M485.26,518.19c-3.04,2.9-4.61,4.98-0.61,7.75c-1.45,0.16-2.9,0.32-5.2,0.58c0.53-3.09,0.95-5.5,1.43-8.3
		c-3.04,0-6.41,0-9.59,0c-1.06-2.63-1.98-4.79-2.82-6.99c-3.53-9.3-5.11-10.28-15.01-8.77c-1.15,0.18-2.53,1.1-3.12,2.08
		c-1.04,1.74-1.64,3.77-2.24,5.73c-0.6,1.95-0.98,3.97-1.54,6.28c-2.51,0.51-5.29,1.08-7.08,1.45c1.38-1.82,3.62-3.81,4.67-6.31
		c5.15-12.29,9.99-24.71,15.52-38.55c3.44,8.35,6.36,15.36,9.22,22.39c1.67,4.12,3.05,8.38,4.9,12.42
		C475.98,512.8,477.2,518.79,485.26,518.19z M464.44,500.44c-2.09-5.69-3.9-10.63-6.2-16.89c-2.38,6.5-4.21,11.49-6.19,16.89
		C456.35,500.44,459.93,500.44,464.44,500.44z"/>
	<path class="st0" d="M142.76,474.58c4.26,10.59,8.4,21.23,12.82,31.74c1.77,4.19,4.17,8.11,6.29,12.16
		c0.43-0.19,0.87-0.39,1.3-0.58c-3.21,0-6.42,0-9.68,0c-1.3-3.57-2.87-6.97-3.76-10.55c-0.97-3.94-3.06-5.14-7.03-5.06
		c-10.1,0.19-11.34,1.05-13.25,11.31c-0.18,0.99-0.15,2.01-0.22,2.94c-2.99,0.59-5.63,1.1-7.42,1.45c1.41-1.8,3.68-3.73,4.7-6.18
		c5.15-12.31,9.97-24.75,14.91-37.15C141.87,474.64,142.32,474.61,142.76,474.58z M141.23,485.03c-0.38,0.01-0.77,0.03-1.15,0.04
		c-1.82,4.99-3.65,9.98-5.54,15.17c4.33,0,7.99,0,12.2,0C144.77,494.8,143,489.91,141.23,485.03z"/>
	<path class="st0" d="M317.44,475.07c6.02,0,10.71,0,13.79,0c-0.53,1.1-2.11,2.9-2.15,4.74c-0.25,9.91-0.06,19.83-0.15,29.75
		c-0.04,3.9,1.59,5.93,5.56,5.69c3.63-0.22,7.25-0.58,11.17-0.9c0.67,3.07-1.81,3.68-4.9,3.68c-6.96,0.01-13.92,0-20.63,0
		c0.62-1.63,1.77-3.26,1.79-4.91c0.16-11.13,0.2-22.27-0.05-33.41c-0.03-1.52-1.85-3.02-2.87-4.5c-0.15-0.22-0.49-0.3-0.74-0.45
		C318.43,474.7,318.59,474.64,317.44,475.07z"/>
	<path class="st0" d="M316.35,254.74c5.58-4.75,11.61-9.12,19.58-9.37C329.43,248.48,322.89,251.61,316.35,254.74z"/>
</g>
</svg>
